#!OML:ASF E:\Steps\Project 1\Capture day 1\Session 2\Subject.ASF
:FULLY-SPECIFIED
:DEGREES
941
root 28.3125 16.1253 -11.1299 -321.121 86.4111 18.4442
lowerback -29.9765 -2.51716 -5.81345
upperback -0.548836 -0.93799 -0.72987
thorax 15.2856 -0.708784 2.01369
lowerneck 1.91108 -1.83775 -2.93575
upperneck -7.22709 -2.21054 4.7729
head -2.54775 -1.13865 2.11298
rclavicle -1.23246e-014 1.35174e-014
rhumerus -36.5871 -31.7417 -71.5239
rradius 19.0458
rwrist 12.2692
rhand -6.87862 -52.3911
rfingers 7.12502
rthumb 18.9876 -81.4844
lclavicle -1.23246e-014 1.35174e-014
lhumerus -15.4535 -11.6586 85.5937
lradius 30.9405
lwrist 1.45145
lhand -23.7541 -12.2465
lfingers 7.12502
lthumb 2.71479 17.716
rfemur -26.1497 9.53606 16.8959
rtibia 19.319
rfoot -21.413 -5.0109
rtoes -16.1207
lfemur -19.6199 -6.34024 -22.8865
ltibia 7.9062
lfoot -5.17724 -4.45475
ltoes -33.654
942
root 28.3466 16.1325 -11.1138 -328.299 86.2906 11.1547
lowerback -30.2218 -2.32741 -5.48042
upperback -0.62922 -0.805769 -0.615291
thorax 15.2938 -0.628244 2.00967
lowerneck 2.02217 -1.92653 -2.85482
upperneck -7.19753 -2.3224 4.87996
head -2.55345 -1.201 2.13824
rclavicle 1.00386e-014 3.97569e-015
rhumerus -36.6515 -32.3416 -71.2459
rradius 18.7827
rwrist 13.6773
rhand -7.04926 -53.0068
rfingers 7.12502
rthumb 18.8234 -82.116
lclavicle 1.00386e-014 3.97569e-015
lhumerus -16.0916 -12.3806 85.813
lradius 30.9024
lwrist 2.31397
lhand -24.1339 -11.9506
lfingers 7.12502
lthumb 2.34807 18.0162
rfemur -26.0286 9.78468 17.4107
rtibia 19.0481
rfoot -21.2816 -4.90899
rtoes -16.5833
lfemur -19.5486 -6.04379 -22.3328
ltibia 7.83476
lfoot -5.18776 -4.34469
ltoes -32.5836
943
root 28.3694 16.1463 -11.1063 -331.775 86.1154 7.535
lowerback -30.3576 -2.21353 -5.24927
upperback -0.747418 -0.737396 -0.547722
thorax 15.2118 -0.577968 1.98549
lowerneck 2.1689 -1.96882 -2.86207
upperneck -7.20452 -2.37029 5.05541
head -2.57985 -1.23159 2.20229
rclavicle 6.60959e-015 7.95139e-015
rhumerus -36.6711 -32.7694 -70.9664
rradius 18.6432
rwrist 14.5415
rhand -6.65977 -53.2664
rfingers 7.12502
rthumb 19.198 -82.3388
lclavicle 6.60959e-015 7.95139e-015
lhumerus -16.6568 -12.2558 86.0623
lradius 30.6146
lwrist 2.45148
lhand -24.4465 -11.9039
lfingers 7.12502
lthumb 2.04611 18.066
rfemur -26.0265 9.6766 17.6667
rtibia 18.8045
rfoot -21.1287 -4.5086
rtoes -16.6677
lfemur -19.63 -6.35277 -21.9484
ltibia 7.93318
lfoot -5.26753 -3.81373
ltoes -31.0527
944
root 28.4093 16.1477 -11.1048 -325.117 86.1163 14.2187
lowerback -30.5475 -2.41232 -5.663
upperback -0.76092 -0.825099 -0.588934
thorax 15.2892 -0.642103 2.12566
lowerneck 1.81768 -1.71959 -2.79112
upperneck -7.02914 -2.05343 4.73684
head -2.47231 -1.06214 2.06564
rclavicle 2.36057e-014 -1.51076e-014
rhumerus -36.587 -32.9926 -70.7342
rradius 18.4851
rwrist 14.6818
rhand -6.98607 -53.1063
rfingers 7.12502
rthumb 18.8842 -82.2096
lclavicle 2.36057e-014 -1.51076e-014
lhumerus -17.1065 -11.2636 86.2184
lradius 30.0801
lwrist 1.85647
lhand -24.1006 -11.9608
lfingers 7.12502
lthumb 2.38017 18.0057
rfemur -25.4745 9.07478 17.2984
rtibia 18.0471
rfoot -20.8594 -4.23183
rtoes -17.307
lfemur -19.4686 -6.57149 -22.5848
ltibia 8.02982
lfoot -5.44636 -3.81528
ltoes -33.1598
945
root 28.4441 16.1531 -11.101 -323.248 86.1508 16.0508
lowerback -30.7254 -2.51216 -5.81229
upperback -0.799497 -0.889316 -0.562746
thorax 15.3302 -0.679148 2.20608
lowerneck 1.49825 -1.5908 -2.823
upperneck -6.78561 -1.89252 4.61224
head -2.34004 -0.973932 2.01616
rclavicle -8.74653e-015 -2.8625e-014
rhumerus -36.5508 -33.3669 -70.5126
rradius 18.4195
rwrist 14.8907
rhand -7.95379 -52.863
rfingers 7.12502
rthumb 17.9533 -82.0543
lclavicle -8.74653e-015 -2.8625e-014
lhumerus -17.4865 -8.83497 86.4971
lradius 29.1596
lwrist -0.0344992
lhand -23.376 -12.1191
lfingers 7.12502
lthumb 3.08001 17.8384
rfemur -25.047 9.47338 17.1512
rtibia 17.4377
rfoot -20.7362 -4.7776
rtoes -18.3006
lfemur -19.3636 -6.80683 -22.752
ltibia 8.04041
lfoot -5.54822 -3.58819
ltoes -35.2504
946
root 28.4725 16.162 -11.0944 -323.769 86.1709 15.4352
lowerback -30.8765 -2.55324 -5.81332
upperback -0.866329 -0.940793 -0.486058
thorax 15.3252 -0.700712 2.26751
lowerneck 2.22083 -1.77985 -2.75499
upperneck -7.20616 -2.11604 4.99738
head -2.60233 -1.10685 2.15858
rclavicle -9.44227e-015 1.07344e-014
rhumerus -36.3671 -33.144 -70.6555
rradius 18.615
rwrist 14.7165
rhand -8.77939 -52.4048
rfingers 7.12502
rthumb 17.1588 -81.6672
lclavicle -9.44227e-015 1.07344e-014
lhumerus -18.1352 -8.36889 86.7141
lradius 28.7904
lwrist 0.148322
lhand -23.3705 -12.0922
lfingers 7.12502
lthumb 3.08526 17.8653
rfemur -24.7463 9.42756 17.2292
rtibia 16.8781
rfoot -20.5502 -4.71768
rtoes -19.2868
lfemur -19.3315 -7.22641 -22.6139
ltibia 8.03924
lfoot -5.59719 -3.17697
ltoes -35.2873
947
root 28.4991 16.1706 -11.0925 -324.144 86.3313 14.9088
lowerback -31.0124 -2.5599 -5.64868
upperback -0.983088 -0.998671 -0.454382
thorax 15.2525 -0.708179 2.18836
lowerneck 2.03071 -1.71023 -2.59307
upperneck -7.26913 -2.02616 4.72808
head -2.59388 -1.05587 2.0353
rclavicle -4.22417e-015 -8.74653e-015
rhumerus -36.3071 -32.9929 -70.7992
rradius 18.9081
rwrist 14.2632
rhand -7.2962 -53.2435
rfingers 7.12502
rthumb 18.5859 -82.3756
lclavicle -4.22417e-015 -8.74653e-015
lhumerus -19.0031 -9.26661 86.8934
lradius 28.7649
lwrist 1.64017
lhand -23.7754 -11.9294
lfingers 7.12502
lthumb 2.69429 18.0334
rfemur -24.3858 10.0647 17.298
rtibia 16.1213
rfoot -20.2265 -5.71023
rtoes -22.0056
lfemur -19.446 -7.48232 -22.4673
ltibia 8.16547
lfoot -5.71557 -3.09143
ltoes -35.5673
948
root 28.5272 16.1797 -11.1016 -320.508 86.7228 18.447
lowerback -31.0758 -2.67924 -5.54878
upperback -1.08147 -1.18491 -0.427588
thorax 15.1789 -0.777246 2.08664
lowerneck 2.00078 -1.7421 -2.34948
upperneck -7.5566 -2.05642 4.54177
head -2.6854 -1.07104 1.93579
rclavicle 5.06901e-015 -8.34896e-015
rhumerus -36.3367 -33.2352 -70.6745
rradius 19.117
rwrist 14.1581
rhand -7.04974 -53.4444
rfingers 7.12502
rthumb 18.823 -82.5537
lclavicle 5.06901e-015 -8.34896e-015
lhumerus -19.72 -10.2465 87.0208
lradius 28.6212
lwrist 3.35906
lhand -24.0159 -11.388
lfingers 7.12502
lthumb 2.46204 18.5775
rfemur -23.9558 8.97393 17.3023
rtibia 15.3709
rfoot -19.9642 -5.2009
rtoes -21.7505
lfemur -19.552 -8.48623 -22.4523
ltibia 8.32302
lfoot -5.8682 -2.6151
ltoes -36.2901
949
root 28.5556 16.1811 -11.1056 -316.439 86.9452 22.3095
lowerback -31.3121 -2.85334 -5.60996
upperback -1.15231 -1.38697 -0.304649
thorax 15.2203 -0.870004 2.16638
lowerneck 1.82875 -1.53295 -2.8033
upperneck -7.464 -1.80597 4.43362
head -2.63083 -0.929152 1.97007
rclavicle 1.08586e-014 -2.38542e-015
rhumerus -36.0259 -32.5476 -70.9707
rradius 19.4749
rwrist 13.3357
rhand -7.02539 -53.3073
rfingers 7.12502
rthumb 18.8464 -82.4143
lclavicle 1.08586e-014 -2.38542e-015
lhumerus -20.3335 -8.41127 87.5687
lradius 27.9496
lwrist 2.41496
lhand -24.344 -11.119
lfingers 7.12502
lthumb 2.14509 18.85
rfemur -23.738 7.99501 17.3012
rtibia 14.7972
rfoot -19.7873 -4.6335
rtoes -20.6991
lfemur -19.7451 -9.25563 -22.4866
ltibia 8.45039
lfoot -5.99274 -2.1774
ltoes -36.3346
950
root 28.583 16.1778 -11.0947 -314.707 87.0307 23.7962
lowerback -31.5586 -3.03834 -5.78717
upperback -1.26381 -1.56383 -0.150727
thorax 15.2199 -0.957587 2.35254
lowerneck 1.67997 -1.52214 -3.0028
upperneck -7.46251 -1.79245 4.4869
head -2.60253 -0.916475 2.02052
rclavicle -7.87684e-015 -1.43125e-014
rhumerus -35.8087 -31.7495 -71.2926
rradius 19.9721
rwrist 12.3662
rhand -7.24194 -53.2269
rfingers 7.12502
rthumb 18.6381 -82.354
lclavicle -7.87684e-015 -1.43125e-014
lhumerus -20.7745 -6.41165 87.7756
lradius 26.9568
lwrist 0.998959
lhand -24.1848 -11.2508
lfingers 7.12502
lthumb 2.29891 18.7166
rfemur -23.6177 8.22562 17.3009
rtibia 14.3318
rfoot -19.7202 -4.9964
rtoes -20.7219
lfemur -19.9877 -8.9373 -22.508
ltibia 8.59661
lfoot -6.04285 -2.54474
ltoes -36.4715
951
root 28.6126 16.1793 -11.0744 -316.506 86.9473 21.9497
lowerback -31.6258 -3.15599 -5.99014
upperback -1.36264 -1.65856 -0.00741362
thorax 15.15 -1.01127 2.57858
lowerneck 1.86924 -1.60232 -3.01971
upperneck -7.56932 -1.88988 4.65195
head -2.66868 -0.971449 2.08623
rclavicle 6.88292e-015 2.0276e-014
rhumerus -35.9267 -31.6586 -71.3172
rradius 20.4902
rwrist 12.1794
rhand -7.81099 -53.0368
rfingers 7.12502
rthumb 18.0907 -82.2155
lclavicle 6.88292e-015 2.0276e-014
lhumerus -21.3302 -4.96035 87.7544
lradius 25.9823
lwrist -0.101547
lhand -23.7016 -11.5714
lfingers 7.12502
lthumb 2.76554 18.3904
rfemur -23.1972 9.06513 17.2933
rtibia 13.7325
rfoot -19.7576 -5.22471
rtoes -18.6331
lfemur -19.883 -8.14183 -22.5025
ltibia 8.5503
lfoot -6.09305 -3.09228
ltoes -37.6397
952
root 28.6411 16.1795 -11.0699 -318.529 87.0045 19.8377
lowerback -31.7652 -3.1523 -5.83451
upperback -1.43582 -1.70053 0.0241801
thorax 15.127 -1.01538 2.50971
lowerneck 1.71331 -1.57009 -2.95945
upperneck -7.49957 -1.84912 4.55622
head -2.61865 -0.9481 2.03836
rclavicle 4.79568e-015 1.31198e-014
rhumerus -35.4518 -30.3229 -72.2463
rradius 20.779
rwrist 10.5772
rhand -8.02851 -52.7491
rfingers 7.12502
rthumb 17.8814 -81.947
lclavicle 4.79568e-015 1.31198e-014
lhumerus -22.0149 -4.64161 87.8288
lradius 25.3288
lwrist -0.0075248
lhand -23.3099 -11.755
lfingers 7.12502
lthumb 3.14384 18.2016
rfemur -22.8185 9.18465 17.4211
rtibia 13.0359
rfoot -19.5258 -5.33356
rtoes -18.9156
lfemur -19.79 -8.35 -22.3104
ltibia 8.40001
lfoot -6.14296 -2.75361
ltoes -38.3674
